HIERARCHY
ROOT Hips
{
 OFFSET 0.000000 0.000000 0.000000
 CHANNELS 6 Xposition Yposition Zposition Yrotation Xrotation Zrotation
 JOINT Chest
 {
  OFFSET 0.000000 9.585900 0.002600
  CHANNELS 3 Yrotation Xrotation Zrotation
  JOINT Chest2
  {
   OFFSET 0.000000 9.601200 -0.005300
   CHANNELS 3 Yrotation Xrotation Zrotation
   JOINT Chest3
   {
    OFFSET 0.000000 9.561800 0.000000
    CHANNELS 3 Yrotation Xrotation Zrotation
    JOINT Chest4
    {
     OFFSET 0.000000 9.552100 0.000000
     CHANNELS 3 Yrotation Xrotation Zrotation
     JOINT Neck
     {
      OFFSET 0.000000 14.453000 0.000000
      CHANNELS 3 Yrotation Xrotation Zrotation
      JOINT Head
      {
       OFFSET 0.000000 8.936500 -0.011300
       CHANNELS 3 Yrotation Xrotation Zrotation
       End Site
       {
        OFFSET 0.000000 17.073600 -0.006000
       }
      }
     }
     JOINT RightCollar
     {
      OFFSET -2.921100 9.558500 0.000000
      CHANNELS 3 Yrotation Xrotation Zrotation
      JOINT RightShoulder
      {
       OFFSET -13.519700 0.000000 0.000000
       CHANNELS 3 Yrotation Xrotation Zrotation
       JOINT RightElbow
       {
        OFFSET 0.000000 -29.696600 0.000000
        CHANNELS 3 Yrotation Xrotation Zrotation
        JOINT RightWrist
        {
         OFFSET 0.000000 -24.004700 0.000000
         CHANNELS 3 Yrotation Xrotation Zrotation
         End Site
         {
          OFFSET 0.000000 -17.728500 0.000000
         }
        }
       }
      }
     }
     JOINT LeftCollar
     {
      OFFSET 2.921100 9.558500 0.000000
      CHANNELS 3 Yrotation Xrotation Zrotation
      JOINT LeftShoulder
      {
       OFFSET 13.519700 0.000000 0.000000
       CHANNELS 3 Yrotation Xrotation Zrotation
       JOINT LeftElbow
       {
        OFFSET 0.000000 -29.696600 0.000000
        CHANNELS 3 Yrotation Xrotation Zrotation
        JOINT LeftWrist
        {
         OFFSET 0.000000 -24.004700 0.000000
         CHANNELS 3 Yrotation Xrotation Zrotation
         End Site
         {
          OFFSET 0.000000 -17.728500 0.000000
         }
        }
       }
      }
     }
    }
   }
  }
 }
 JOINT RightHip
 {
  OFFSET -7.771700 -0.012900 -0.001300
  CHANNELS 3 Yrotation Xrotation Zrotation
  JOINT RightKnee
  {
   OFFSET 0.000000 -40.869800 0.001200
   CHANNELS 3 Yrotation Xrotation Zrotation
   JOINT RightAnkle
   {
    OFFSET 0.000000 -39.717900 0.002100
    CHANNELS 3 Yrotation Xrotation Zrotation
    JOINT RightToe
    {
     OFFSET 0.000000 -4.965400 11.033500
     CHANNELS 3 Yrotation Xrotation Zrotation
     End Site
     {
      OFFSET 0.000000 -1.423100 5.872300
     }
    }
   }
  }
 }
 JOINT LeftHip
 {
  OFFSET 7.771700 -0.012900 -0.001300
  CHANNELS 3 Yrotation Xrotation Zrotation
  JOINT LeftKnee
  {
   OFFSET 0.000000 -40.869800 0.001200
   CHANNELS 3 Yrotation Xrotation Zrotation
   JOINT LeftAnkle
   {
    OFFSET 0.000000 -39.717900 0.002100
    CHANNELS 3 Yrotation Xrotation Zrotation
    JOINT LeftToe
    {
     OFFSET 0.000000 -4.965400 11.033500
     CHANNELS 3 Yrotation Xrotation Zrotation
     End Site
     {
      OFFSET 0.000000 -1.423100 5.872300
     }
    }
   }
  }
 }
}
MOTION
Frames: 12
Frame Time: 0.008333
-50.441361 52.901199 -13.004996 -177.890267 -18.279891 -1.906732 0.302416 17.628256 0.690550 0.017878 1.909922 0.082988 0.040167 3.170115 0.134190 0.255430 15.446229 0.695938 0.180830 15.393633 -3.635101 1.012303 -9.512115 -3.871035 -0.244032 -3.015792 2.066652 -1.180991 -6.455409 -5.108647 -83.291571 -77.094539 113.373147 -5.347741 1.810033 -5.526107 -6.253976 -3.709588 1.752240 5.202790 -3.742543 10.194444 69.212990 -63.176428 -107.211890 3.348122 -6.077112 6.760179 3.136460 -60.505839 10.270936 -167.271895 86.757684 -169.679266 -10.443484 -21.420278 13.508146 0.010812 -0.042929 0.007559 6.470812 -58.575025 -4.466858 119.469306 78.020983 117.745193 -6.750488 -19.976758 -0.305483 0.032201 0.136700 0.011219
-50.444209 52.901432 -13.007261 -177.884605 -18.278865 -1.907040 0.298610 17.626927 0.688864 0.019553 1.908429 0.081975 0.037624 3.171466 0.135646 0.260556 15.443640 0.694663 0.279650 15.363925 -3.711659 1.131764 -9.538593 -3.975312 -0.255637 -3.003558 2.047331 -1.210065 -6.465449 -5.083658 -83.318820 -77.075942 113.385450 -5.392650 1.678808 -5.524620 -6.260561 -3.722776 1.805450 5.199421 -3.743367 10.163903 69.326366 -63.212862 -107.316711 3.358640 -6.098224 6.663599 3.134179 -60.507675 10.290989 -166.939294 86.752240 -169.326289 -10.598630 -21.403797 13.528091 0.001336 -0.035271 0.011985 6.467716 -58.575238 -4.471145 119.471053 78.024390 117.747688 -6.745773 -19.972859 -0.307040 0.034268 0.133736 0.011936
-50.445986 52.901307 -13.008838 -177.887579 -18.270274 -1.908824 0.304342 17.618204 0.691701 0.022471 1.907608 0.081148 0.038797 3.170534 0.135450 0.265817 15.441215 0.694232 0.373467 15.337398 -3.780198 1.251221 -9.560860 -4.076645 -0.283528 -2.991306 2.029735 -1.206727 -6.472789 -5.058575 -83.339260 -77.055415 113.374332 -5.436408 1.554889 -5.535670 -6.271968 -3.724547 1.828332 5.200066 -3.742279 10.151042 69.482145 -63.257608 -107.460441 3.369661 -6.098325 6.529553 3.134780 -60.515503 10.288208 -167.029044 86.753605 -169.423654 -10.541086 -21.404421 13.523559 0.004142 -0.040616 0.005968 6.462456 -58.584565 -4.464867 119.486393 78.026779 117.761738 -6.744344 -19.973485 -0.306644 0.036910 0.133200 0.012209
-50.448220 52.901097 -13.010780 -177.880933 -18.260025 -1.908553 0.298393 17.609182 0.689987 0.023028 1.906687 0.081054 0.039790 3.168693 0.135147 0.270774 15.437630 0.693779 0.465945 15.312852 -3.843314 1.372268 -9.577866 -4.176324 -0.329823 -2.962817 2.006478 -1.227472 -6.498073 -5.027913 -83.279767 -77.028627 113.331968 -5.493427 1.402950 -5.567039 -6.279115 -3.734085 1.863051 5.193385 -3.756142 10.137303 69.523677 -63.253613 -107.486441 3.361738 -6.094044 6.336475 3.143955 -60.523643 10.255133 -167.289976 86.753778 -169.696619 -10.401609 -21.415122 13.508497 0.009877 -0.049134 -0.002461 6.452688 -58.591866 -4.464696 119.461050 78.029467 117.729899 -6.743349 -19.973015 -0.303870 0.037152 0.136908 0.011940
-50.451132 52.900947 -13.013529 -177.881299 -18.251235 -1.899620 0.286294 17.599018 0.686328 0.030620 1.906313 0.075973 0.039782 3.166508 0.135201 0.255328 15.410293 0.702917 0.524428 15.329689 -3.891296 1.543786 -9.606162 -4.313224 -0.337803 -2.919693 1.977445 -1.297148 -6.512875 -5.001147 -83.187058 -77.019611 113.311582 -5.583722 1.218469 -5.640634 -6.250078 -3.737693 1.881113 5.177433 -3.781925 10.109895 69.654173 -63.266174 -107.583688 3.413556 -5.990841 6.089069 3.165070 -60.533244 10.235003 -167.184663 86.748594 -169.590446 -10.387251 -21.412067 13.509265 0.009641 -0.050270 -0.002967 6.449015 -58.594377 -4.469410 119.448774 78.033946 117.707256 -6.741421 -19.978516 -0.300287 0.036586 0.142225 0.010444
-50.452934 52.899871 -13.013800 -177.880572 -18.222751 -1.894480 0.271496 17.564705 0.682902 0.035195 1.910147 0.075388 0.038678 3.162046 0.135633 0.234194 15.378307 0.704490 0.592641 15.353859 -3.934718 1.704980 -9.631026 -4.436695 -0.317999 -2.878136 1.959656 -1.355598 -6.517991 -4.990514 -83.101791 -77.007441 113.270562 -5.694364 0.997305 -5.738544 -6.220056 -3.707873 1.868375 5.182900 -3.810370 10.095267 69.846142 -63.298788 -107.753519 3.463370 -5.867076 5.816686 3.181853 -60.563951 10.217279 -167.062182 86.745580 -169.460406 -10.385403 -21.406109 13.505460 0.009457 -0.049052 -0.001076 6.452689 -58.619085 -4.481724 119.428147 78.031039 117.684943 -6.748238 -19.986275 -0.300078 0.035216 0.149577 0.010471
-50.453943 52.899392 -13.016181 -177.874983 -18.203880 -1.893520 0.258544 17.541472 0.681223 0.024766 1.902709 0.078265 0.035632 3.153018 0.135919 0.222748 15.347593 0.702346 0.751372 15.327826 -4.024287 1.757409 -9.587591 -4.466284 -0.298541 -2.816632 1.935282 -1.387768 -6.527184 -4.979232 -82.963478 -76.978300 113.136769 -5.808027 0.717768 -5.846082 -6.189372 -3.664893 1.853073 5.199887 -3.850091 10.078973 70.003965 -63.333488 -107.906473 3.480179 -5.781914 5.557208 3.192973 -60.581649 10.189595 -167.219989 86.744683 -169.628295 -10.279480 -21.412198 13.492084 0.013878 -0.054634 -0.002612 6.449153 -58.635833 -4.487963 119.428678 78.030202 117.683184 -6.744685 -19.991309 -0.302520 0.037677 0.151045 0.013181
-50.454800 52.898942 -13.018861 -177.870834 -18.184403 -1.890799 0.247997 17.516140 0.678776 0.018108 1.889211 0.081330 0.031603 3.141132 0.135719 0.216819 15.325694 0.698476 0.858706 15.322233 -4.077961 1.843642 -9.563961 -4.519828 -0.290702 -2.736230 1.908755 -1.401898 -6.552304 -4.963691 -82.825192 -76.954243 112.996219 -5.947446 0.372088 -5.995302 -6.171990 -3.626758 1.842651 5.210912 -3.855442 10.072040 70.303694 -63.383395 -108.183427 3.479866 -5.726926 5.329324 3.209785 -60.601033 10.163655 -167.343888 86.741461 -169.758662 -10.222386 -21.412681 13.486809 0.016233 -0.057572 -0.000985 6.450984 -58.654534 -4.497256 119.437384 78.028705 117.689150 -6.742687 -19.993455 -0.302812 0.034677 0.150289 0.013907
-50.455025 52.899103 -13.023502 -177.874575 -18.176035 -1.887979 0.240517 17.482895 0.683857 0.019970 1.895053 0.076676 0.025652 3.101622 0.139115 0.217667 15.333648 0.691789 0.939453 15.329197 -4.112570 1.938076 -9.553673 -4.577334 -0.283998 -2.665216 1.895132 -1.406242 -6.571849 -4.957191 -82.517002 -76.917771 112.675769 -6.073062 -0.059403 -6.177653 -6.163414 -3.583600 1.814179 5.222148 -3.871055 10.086703 70.654243 -63.443574 -108.503042 3.473692 -5.710925 5.145029 3.228245 -60.610421 10.160787 -167.155703 86.736582 -169.559079 -10.296478 -21.402465 13.497936 0.013501 -0.053298 0.005810 6.452864 -58.662590 -4.498094 119.481684 78.024429 117.730655 -6.740474 -20.001009 -0.301601 0.031463 0.147170 0.012645
-50.455203 52.899352 -13.028467 -177.874215 -18.169434 -1.885522 0.237559 17.469781 0.683128 0.017480 1.883026 0.077843 0.027152 3.091401 0.139949 0.215386 15.337710 0.688826 1.012760 15.314608 -4.138045 2.021755 -9.540365 -4.624756 -0.281646 -2.629083 1.888711 -1.429493 -6.574435 -4.967445 -82.302110 -76.852462 112.483823 -6.209154 -0.502629 -6.401973 -6.156829 -3.560966 1.791160 5.279118 -3.961495 10.075599 70.844475 -63.500788 -108.703023 3.464891 -5.726397 5.002954 3.241589 -60.615635 10.156181 -167.146724 86.732998 -169.547378 -10.358240 -21.398948 13.512822 0.012325 -0.051118 0.009503 6.454015 -58.668310 -4.501229 119.510627 78.023449 117.756437 -6.736133 -20.004024 -0.299349 0.026332 0.143521 0.011105
-50.455793 52.899106 -13.031946 -177.874278 -18.154600 -1.879517 0.233906 17.448040 0.679372 0.016108 1.870333 0.080693 0.028953 3.096618 0.136420 0.213043 15.327730 0.689447 1.081136 15.305332 -4.160072 2.091728 -9.521159 -4.659664 -0.278050 -2.591891 1.881668 -1.437796 -6.576208 -4.984560 -82.165317 -76.740911 112.357586 -6.356225 -0.910169 -6.627854 -6.151954 -3.537781 1.773850 5.290246 -3.987427 10.076625 71.229526 -63.542794 -109.050480 3.453988 -5.758183 4.895580 3.256928 -60.633234 10.151722 -166.968349 86.725463 -169.359046 -10.462323 -21.383267 13.529128 0.009347 -0.041917 0.013580 6.461302 -58.681799 -4.511719 119.529722 78.025281 117.772741 -6.733671 -20.005787 -0.298827 0.025461 0.141836 0.011207
-50.457556 52.898298 -13.033574 -177.879965 -18.130598 -1.864383 0.241136 17.399941 0.671880 0.009897 1.874897 0.080427 0.028716 3.101461 0.134056 0.235441 15.240551 0.686961 1.123717 15.378674 -4.167772 2.148096 -9.495192 -4.682849 -0.289937 -2.458560 1.880079 -1.441310 -6.589671 -5.010889 -82.057777 -76.553510 112.243884 -6.509339 -1.249794 -6.813371 -6.172014 -3.437485 1.756088 5.322911 -4.063732 10.055155 71.490352 -63.570145 -109.289111 3.444634 -5.803205 4.813206 3.287776 -60.660914 10.144597 -166.641228 86.719323 -169.008840 -10.654728 -21.368606 13.555520 -0.001734 -0.026507 0.020305 6.483805 -58.703400 -4.536248 119.537334 78.024254 117.776235 -6.738081 -20.004827 -0.295191 0.027917 0.138219 0.009193
